<?xml version="1.0" encoding="UTF-8" standalone="no"?><!DOCTYPE svg PUBLIC "-//W3C//DTD SVG 1.1//EN" "http://www.w3.org/Graphics/SVG/1.1/DTD/svg11.dtd"><svg width="100%" height="100%" viewBox="0 0 512 512" version="1.1" xmlns="http://www.w3.org/2000/svg" xmlns:xlink="http://www.w3.org/1999/xlink" xml:space="preserve" xmlns:serif="http://www.serif.com/" style="fill-rule:evenodd;clip-rule:evenodd;stroke-linejoin:round;stroke-miterlimit:1.41421;"><path d="M275.579,512.005l-40.486,0c-7.882,0 -14.355,-6.751 -16.06,-13.264l-15.336,-57.607c-0.465,-0.832 -1.151,-1.518 -1.983,-1.983l-36.313,-15.187c-1.123,-0.404 -2.347,-0.436 -3.49,-0.09l-51.341,29.116c-5.849,3.361 -14.761,2.528 -19.887,-1.982c-0.317,-0.268 -8.823,-7.574 -15.276,-13.879c-6.573,-6.771 -13.879,-15.336 -14.177,-15.693c-4.581,-5.63 -5.311,-13.51 -1.843,-19.887l29.561,-51.371c0.282,-0.897 0.306,-1.856 0.07,-2.766l-15.118,-36.293c-0.447,-1.095 -1.255,-2.005 -2.29,-2.578l-56.884,-15.663c-7.004,-2.139 -11.995,-8.407 -12.51,-15.713l0.079,-40.813c0.387,-7.564 5.869,-14.286 12.709,-16.04l56.883,-15.436c0.874,-0.445 1.601,-1.134 2.092,-1.982l15.227,-36.313c0.434,-1.088 0.479,-2.293 0.129,-3.411l-29.195,-51.312c-3.407,-6.361 -2.704,-14.176 1.784,-19.826c0.367,-0.427 7.703,-9.071 14.375,-15.614c6.374,-6.464 14.999,-13.73 15.366,-14.047c5.194,-4.362 13.988,-5.165 19.827,-1.795l51.322,29.433c0.953,0.079 1.911,0.079 2.865,0l36.293,-15.207c1.146,-0.616 2.058,-1.592 2.597,-2.776l15.673,-57.736c1.656,-5.948 7.743,-14.285 16.11,-14.285l40.466,0c8.337,0 14.404,8.407 16.05,14.375l15.435,58.816c0.46,0.856 1.146,1.569 1.983,2.062l36.234,15.118c1.084,0.397 2.265,0.449 3.38,0.149l51.342,-29.176c5.889,-3.36 14.751,-2.518 19.906,1.924c0.317,0.277 8.982,7.653 15.426,14.176c6.443,6.523 13.809,15.098 14.116,15.465c4.576,5.63 5.299,13.508 1.824,19.876l-29.512,51.342c-0.28,0.924 -0.307,1.907 -0.079,2.845l15.068,36.204c0.478,1.106 1.326,2.011 2.399,2.558l56.893,15.683c7.012,2.144 12.002,8.427 12.501,15.742l-0.079,40.923c-0.456,7.495 -5.879,14.167 -12.63,16.02l-57.101,15.366c-0.866,0.453 -1.588,1.14 -2.082,1.983l-15.138,36.243c-0.45,1.101 -0.506,2.323 -0.158,3.46l29.205,51.362c3.427,6.367 2.69,14.21 -1.864,19.827c-0.357,0.406 -7.723,8.981 -14.048,15.405c-6.711,6.652 -15.326,13.879 -15.693,14.206c-5.155,4.342 -13.968,5.135 -19.826,1.775l-51.184,-29.503c-0.959,-0.085 -1.925,-0.085 -2.884,0l-36.274,15.049c-1.115,0.482 -2.034,1.328 -2.607,2.399l-15.733,57.201c-1.804,6.463 -8.317,13.125 -16.109,13.125Zm-39.604,-17.091l38.752,0c0.202,-0.181 0.367,-0.4 0.485,-0.644l15.743,-57.171c1.725,-6.166 7.286,-11.985 13.224,-13.879l35.094,-14.553c2.637,-1.176 5.5,-1.758 8.387,-1.705c3.513,-0.043 6.98,0.81 10.072,2.478l51.193,29.503c5.194,-4.134 10.158,-8.549 14.87,-13.225c5.859,-5.948 13.066,-14.335 13.135,-14.414l-29.254,-51.768c-3.082,-5.91 -3.258,-12.927 -0.476,-18.984l14.692,-35.173c1.804,-5.403 7.474,-10.746 13.571,-12.432l57.112,-15.365l0.099,-40.09l-56.923,-15.297c-6.337,-1.992 -11.414,-6.798 -13.75,-13.016l-14.623,-35.143c-2.528,-4.957 -2.29,-12.957 0.803,-18.39l29.523,-51.322c-4.152,-5.154 -8.573,-10.084 -13.245,-14.771c-5.948,-6.027 -14.325,-13.165 -14.414,-13.234l-51.679,29.125c-3.081,1.669 -6.538,2.522 -10.042,2.479c-3.087,0.031 -6.139,-0.647 -8.922,-1.983l-35.163,-14.702c-5.334,-1.784 -10.806,-7.593 -12.451,-13.611l-15.446,-58.806c-0.239,-0.62 -0.574,-1.198 -0.991,-1.715l-37.612,0c-0.449,0.508 -0.804,1.092 -1.05,1.725l-15.683,57.736c-1.517,5.383 -6.633,12.144 -13.175,14.235l-35.104,14.752c-2.672,1.2 -5.577,1.796 -8.506,1.744c-3.459,0.038 -6.872,-0.808 -9.913,-2.458l-51.273,-29.423c-0.436,0.089 -8.723,7.108 -14.652,13.135c-6.205,6.097 -13.284,14.434 -13.353,14.513c0.079,0 0.05,0.427 0.099,0.615l29.106,51.133c3.087,5.907 3.26,12.924 0.466,18.975l-14.751,35.202c-1.785,5.393 -7.653,10.846 -13.701,12.402l-56.853,15.426l-0.09,40l56.894,15.307c6.345,1.986 11.422,6.81 13.73,13.046l14.622,35.143c2.558,4.957 2.36,12.947 -0.763,18.409l-29.552,51.362c0.109,0.377 7.266,8.793 13.264,14.969c5.948,5.74 14.295,12.937 14.375,13.007l51.708,-29.156c5.895,-3.013 12.846,-3.214 18.905,-0.545l35.302,14.771c5.333,1.774 10.796,7.564 12.421,13.562l15.356,57.676c0.111,0.199 0.247,0.383 0.407,0.545Zm20.025,-149.772c-48.178,-0.032 -87.805,-39.685 -87.805,-87.863c0,-48.2 39.663,-87.863 87.863,-87.863c48.2,0 87.863,39.663 87.863,87.863c0,23.371 -9.325,45.802 -25.893,62.286c-16.475,16.384 -38.792,25.587 -62.028,25.577Zm-0.119,-158.834c-0.029,0 -0.058,0 -0.087,0c-38.966,0 -71.03,32.064 -71.03,71.03c0,38.966 32.064,71.03 71.03,71.03c38.966,0 71.03,-32.064 71.03,-71.03c0,-18.761 -7.434,-36.779 -20.662,-50.082c-13.263,-13.42 -31.373,-20.971 -50.241,-20.948l-0.04,0Z" style="fill:#fff;fill-rule:nonzero;"/></svg>