<?xml version="1.0" encoding="UTF-8" standalone="no"?><!DOCTYPE svg PUBLIC "-//W3C//DTD SVG 1.1//EN" "http://www.w3.org/Graphics/SVG/1.1/DTD/svg11.dtd"><svg width="100%" height="100%" viewBox="0 0 123 123" version="1.1" xmlns="http://www.w3.org/2000/svg" xmlns:xlink="http://www.w3.org/1999/xlink" xml:space="preserve" xmlns:serif="http://www.serif.com/" style="fill-rule:evenodd;clip-rule:evenodd;stroke-linejoin:round;stroke-miterlimit:1.41421;"><path d="M17.657,110.879c-1.449,0 -2.898,-0.555 -4.002,-1.658c-2.214,-2.208 -2.214,-5.792 0,-8.005l87.57,-87.565c2.208,-2.208 5.791,-2.208 8.004,0c2.208,2.214 2.208,5.797 0,8.005l-87.569,87.565c-1.104,1.103 -2.554,1.658 -4.003,1.658Z" style="fill:#fff;fill-rule:nonzero;"/><path d="M105.227,110.885c-1.449,0 -2.898,-0.555 -4.002,-1.659l-87.57,-87.564c-2.214,-2.214 -2.214,-5.797 0,-8.005c2.208,-2.214 5.791,-2.214 8.005,0l87.569,87.564c2.208,2.208 2.208,5.792 0,8.005c-1.109,1.104 -2.553,1.659 -4.002,1.659Z" style="fill:#fff;fill-rule:nonzero;"/></svg>